<?xml version="1.0" encoding="UTF-8" standalone="no"?>
<!DOCTYPE svg PUBLIC "-//W3C//DTD SVG 1.1//EN" "http://www.w3.org/Graphics/SVG/1.1/DTD/svg11.dtd">
<svg width="100%" height="100%" viewBox="0 0 34 36" version="1.1" xmlns="http://www.w3.org/2000/svg" xmlns:xlink="http://www.w3.org/1999/xlink" xml:space="preserve" xmlns:serif="http://www.serif.com/" style="fill-rule:evenodd;clip-rule:evenodd;stroke-linejoin:round;stroke-miterlimit:2;">
    <g transform="matrix(1.01235,0,0,1.01809,-0.419836,-0.651198)">
        <g id="Layer1">
            <rect x="0.415" y="0.64" width="33.585" height="35.36" style="fill:rgb(235,235,235);"/>
        </g>
    </g>
    <g id="A" transform="matrix(1,0,0,1,0.5,0.5)">
        <g>
            <path d="M30.388,18.374L31.246,29.328L16.052,32.054L14.74,21.1L16.911,20.797C17.264,20.948 17.517,20.999 17.921,21.1C18.577,21.251 19.334,21.453 20.445,20.848C20.697,20.697 21.253,20.242 21.455,19.939L30.388,18.374ZM6.915,31.397C6.663,30.993 6.208,30.539 5.502,29.984C4.492,29.176 4.846,27.763 5.452,26.905C6.209,25.441 10.197,23.523 9.995,21.151C9.894,20.293 9.793,19.182 8.985,18.375C8.956,18.576 8.956,18.78 8.985,18.981C9.014,19.182 8.632,18.577 8.48,17.971C8.329,17.769 8.177,17.668 8.026,17.365C7.925,17.718 7.925,18.072 7.925,18.072C7.925,18.072 7.673,17.416 7.622,16.911C7.471,17.163 7.42,17.618 7.42,17.618C7.42,17.618 7.067,16.608 7.168,16.053C7.017,15.599 6.512,14.64 6.663,12.52C7.521,13.126 9.439,12.974 10.196,11.864C10.448,11.511 10.6,10.501 10.095,8.532C9.742,7.27 8.884,5.402 8.53,4.696L8.48,4.746C8.745,5.528 8.981,6.319 9.187,7.118C9.591,8.885 9.742,9.49 9.54,10.298C9.389,11.005 8.985,11.459 7.925,11.964C6.915,12.469 5.502,11.207 5.452,11.156C4.442,10.348 3.685,9.036 3.584,8.43C3.483,7.723 3.988,7.319 4.24,6.764C3.887,6.865 3.483,7.067 3.483,7.067C3.483,7.067 3.937,6.562 4.543,6.158C4.795,6.007 4.947,5.906 5.199,5.704L4.543,5.704C4.543,5.704 5.149,5.351 5.805,5.149L4.896,5.149L7.319,4.089C8.076,3.786 8.783,3.887 9.187,4.442C9.742,5.199 10.298,5.603 11.459,5.906C12.166,5.603 12.418,5.401 13.327,5.149C14.135,4.24 14.791,4.139 14.791,4.139C14.791,4.139 14.337,4.543 14.286,4.997C14.74,4.644 15.245,4.341 15.245,4.341C15.245,4.341 15.043,4.593 14.892,4.947L14.942,4.997C15.497,4.694 16.103,4.442 16.103,4.442C16.103,4.442 15.901,4.644 15.699,4.947L17.213,4.997C19.081,5.047 19.485,3.028 20.191,2.725C21.1,2.422 21.503,2.22 23.018,3.735C24.33,5.047 25.34,7.319 24.835,7.824C24.431,8.228 23.573,7.673 22.614,6.512C22.109,5.906 21.756,5.149 21.554,4.24C21.453,3.483 20.898,3.029 20.898,3.029C20.898,3.029 21.251,3.786 21.251,4.442C21.251,4.795 21.301,6.108 21.857,6.865C21.807,6.966 21.756,7.42 21.706,7.471C21.05,6.663 19.586,6.108 19.384,5.906C20.192,6.562 22.009,8.026 22.716,9.439C23.372,10.802 22.968,12.013 23.322,12.316C23.423,12.417 24.735,14.032 24.988,14.89C25.442,16.354 25.038,17.868 24.433,18.777L22.818,19.029C22.566,18.979 22.414,18.928 22.212,18.827C22.313,18.625 22.565,18.12 22.565,18.019L22.464,17.868C21.959,18.575 21.101,19.281 20.394,19.685C19.485,20.19 18.425,20.139 17.719,19.887C15.75,19.281 13.883,17.969 13.479,17.615C13.479,17.615 13.479,17.867 13.529,17.968C14.034,18.523 15.144,19.533 16.255,20.24L13.933,20.492L15.044,29.073C14.539,29.123 14.489,29.174 13.933,29.275C13.479,27.609 12.57,26.549 11.561,25.893C10.703,25.338 9.491,25.186 8.33,25.439L8.28,25.54C9.088,25.439 10.047,25.59 11.006,26.196C11.965,26.802 12.722,28.367 13.025,29.275C13.378,30.486 13.631,31.748 12.672,33.111C11.965,34.07 9.946,34.625 8.331,33.464C8.785,34.171 9.341,34.726 10.148,34.827C11.309,34.978 12.42,34.777 13.227,34.019C13.883,33.363 14.237,31.949 14.136,30.435L15.196,30.284L15.549,32.959L32.762,30.889L31.248,17.159L30.39,17.31L28.672,0L0,3.332L3.533,31.903L6.915,31.397ZM20.547,16.38C21.304,16.935 21.96,17.28 22.617,17.238C23.021,17.188 23.425,16.531 23.677,15.926C23.879,15.522 23.879,15.068 23.577,14.926C23.427,14.876 22.82,14.876 22.377,14.926C21.519,15.026 20.661,15.33 20.459,15.481C20.156,15.683 20.309,16.188 20.559,16.381M20.759,10.465L20.759,10.515L20.809,10.615C21.011,11.019 21.213,11.423 21.617,11.615C21.717,11.615 21.819,11.565 21.92,11.565C22.16,11.558 22.399,11.592 22.627,11.666L22.627,11.363C22.577,10.858 22.727,9.95 21.727,9.445C21.323,9.243 20.827,9.345 20.627,9.545L20.727,9.545C20.979,9.645 20.827,9.747 20.777,9.848C20.727,10.05 20.677,10.1 20.777,10.454" style="fill:rgb(92,45,144);fill-rule:nonzero;"/>
            <path d="M16.215,10.575C16.467,10.373 15.055,10.07 13.943,10.777C13.135,11.332 13.135,12.493 13.893,13.149C13.993,13.199 14.043,13.249 14.095,13.299C14.297,13.199 14.6,13.097 14.852,12.996C15.357,12.846 15.752,12.744 16.114,12.693C16.264,12.491 16.467,12.188 16.417,11.633C16.367,10.876 15.761,11.027 16.215,10.573M27.321,24.76L24.444,22.842L22.021,26.88L19.194,26.022L16.721,29.808L16.821,31.008L30.349,28.535L29.541,20.105L27.321,24.76Z" style="fill:rgb(92,45,144);fill-rule:nonzero;"/>
        </g>
    </g>
    <g id="A1" serif:id="A">
        <g>
            <path d="M30.388,18.374L31.246,29.328L16.052,32.054L14.74,21.1L16.911,20.797C17.264,20.948 17.517,20.999 17.921,21.1C18.577,21.251 19.334,21.453 20.445,20.848C20.697,20.697 21.253,20.242 21.455,19.939L30.388,18.374ZM6.915,31.397C6.663,30.993 6.208,30.539 5.502,29.984C4.492,29.176 4.846,27.763 5.452,26.905C6.209,25.441 10.197,23.523 9.995,21.151C9.894,20.293 9.793,19.182 8.985,18.375C8.956,18.576 8.956,18.78 8.985,18.981C9.014,19.182 8.632,18.577 8.48,17.971C8.329,17.769 8.177,17.668 8.026,17.365C7.925,17.718 7.925,18.072 7.925,18.072C7.925,18.072 7.673,17.416 7.622,16.911C7.471,17.163 7.42,17.618 7.42,17.618C7.42,17.618 7.067,16.608 7.168,16.053C7.017,15.599 6.512,14.64 6.663,12.52C7.521,13.126 9.439,12.974 10.196,11.864C10.448,11.511 10.6,10.501 10.095,8.532C9.742,7.27 8.884,5.402 8.53,4.696L8.48,4.746C8.745,5.528 8.981,6.319 9.187,7.118C9.591,8.885 9.742,9.49 9.54,10.298C9.389,11.005 8.985,11.459 7.925,11.964C6.915,12.469 5.502,11.207 5.452,11.156C4.442,10.348 3.685,9.036 3.584,8.43C3.483,7.723 3.988,7.319 4.24,6.764C3.887,6.865 3.483,7.067 3.483,7.067C3.483,7.067 3.937,6.562 4.543,6.158C4.795,6.007 4.947,5.906 5.199,5.704L4.543,5.704C4.543,5.704 5.149,5.351 5.805,5.149L4.896,5.149L7.319,4.089C8.076,3.786 8.783,3.887 9.187,4.442C9.742,5.199 10.298,5.603 11.459,5.906C12.166,5.603 12.418,5.401 13.327,5.149C14.135,4.24 14.791,4.139 14.791,4.139C14.791,4.139 14.337,4.543 14.286,4.997C14.74,4.644 15.245,4.341 15.245,4.341C15.245,4.341 15.043,4.593 14.892,4.947L14.942,4.997C15.497,4.694 16.103,4.442 16.103,4.442C16.103,4.442 15.901,4.644 15.699,4.947L17.213,4.997C19.081,5.047 19.485,3.028 20.191,2.725C21.1,2.422 21.503,2.22 23.018,3.735C24.33,5.047 25.34,7.319 24.835,7.824C24.431,8.228 23.573,7.673 22.614,6.512C22.109,5.906 21.756,5.149 21.554,4.24C21.453,3.483 20.898,3.029 20.898,3.029C20.898,3.029 21.251,3.786 21.251,4.442C21.251,4.795 21.301,6.108 21.857,6.865C21.807,6.966 21.756,7.42 21.706,7.471C21.05,6.663 19.586,6.108 19.384,5.906C20.192,6.562 22.009,8.026 22.716,9.439C23.372,10.802 22.968,12.013 23.322,12.316C23.423,12.417 24.735,14.032 24.988,14.89C25.442,16.354 25.038,17.868 24.433,18.777L22.818,19.029C22.566,18.979 22.414,18.928 22.212,18.827C22.313,18.625 22.565,18.12 22.565,18.019L22.464,17.868C21.959,18.575 21.101,19.281 20.394,19.685C19.485,20.19 18.425,20.139 17.719,19.887C15.75,19.281 13.883,17.969 13.479,17.615C13.479,17.615 13.479,17.867 13.529,17.968C14.034,18.523 15.144,19.533 16.255,20.24L13.933,20.492L15.044,29.073C14.539,29.123 14.489,29.174 13.933,29.275C13.479,27.609 12.57,26.549 11.561,25.893C10.703,25.338 9.491,25.186 8.33,25.439L8.28,25.54C9.088,25.439 10.047,25.59 11.006,26.196C11.965,26.802 12.722,28.367 13.025,29.275C13.378,30.486 13.631,31.748 12.672,33.111C11.965,34.07 9.946,34.625 8.331,33.464C8.785,34.171 9.341,34.726 10.148,34.827C11.309,34.978 12.42,34.777 13.227,34.019C13.883,33.363 14.237,31.949 14.136,30.435L15.196,30.284L15.549,32.959L32.762,30.889L31.248,17.159L30.39,17.31L28.672,0L0,3.332L3.533,31.903L6.915,31.397ZM20.547,16.38C21.304,16.935 21.96,17.28 22.617,17.238C23.021,17.188 23.425,16.531 23.677,15.926C23.879,15.522 23.879,15.068 23.577,14.926C23.427,14.876 22.82,14.876 22.377,14.926C21.519,15.026 20.661,15.33 20.459,15.481C20.156,15.683 20.309,16.188 20.559,16.381M20.759,10.465L20.759,10.515L20.809,10.615C21.011,11.019 21.213,11.423 21.617,11.615C21.717,11.615 21.819,11.565 21.92,11.565C22.16,11.558 22.399,11.592 22.627,11.666L22.627,11.363C22.577,10.858 22.727,9.95 21.727,9.445C21.323,9.243 20.827,9.345 20.627,9.545L20.727,9.545C20.979,9.645 20.827,9.747 20.777,9.848C20.727,10.05 20.677,10.1 20.777,10.454" style="fill:rgb(92,45,144);fill-rule:nonzero;"/>
            <path d="M16.215,10.575C16.467,10.373 15.055,10.07 13.943,10.777C13.135,11.332 13.135,12.493 13.893,13.149C13.993,13.199 14.043,13.249 14.095,13.299C14.297,13.199 14.6,13.097 14.852,12.996C15.357,12.846 15.752,12.744 16.114,12.693C16.264,12.491 16.467,12.188 16.417,11.633C16.367,10.876 15.761,11.027 16.215,10.573M27.321,24.76L24.444,22.842L22.021,26.88L19.194,26.022L16.721,29.808L16.821,31.008L30.349,28.535L29.541,20.105L27.321,24.76Z" style="fill:rgb(92,45,144);fill-rule:nonzero;"/>
        </g>
    </g>
</svg>
